<?xml version="1.0" encoding="utf-8"?>
<!-- Generator: Adobe Illustrator 24.2.0, SVG Export Plug-In . SVG Version: 6.00 Build 0)  -->
<svg version="1.1" id="Layer_1" xmlns="http://www.w3.org/2000/svg" xmlns:xlink="http://www.w3.org/1999/xlink" x="0px" y="0px"
	 viewBox="0 0 295.3 78.4" style="enable-background:new 0 0 295.3 78.4;" xml:space="preserve">
<style type="text/css">
	.st0{fill:#FFFFFF;}
</style>
<g>
	<g>
		<path class="st0" d="M22.7,35.2c1,1.1,2.8,1.1,3.8,0l11.9-11.7c1.1-1,1.1-2.8,0-3.8c-1-1.1-2.8-1.1-3.8,0L22.7,31.4
			C21.6,32.4,21.6,34.1,22.7,35.2z"/>
		<path class="st0" d="M31.9,16.2c-1-1.1-2.8-1.1-3.8,0L17.7,26.3c-1.1,1-1.1,2.8,0,3.8c1,1.1,2.8,1.1,3.8,0L31.9,20
			C32.9,19,33,17.3,31.9,16.2z"/>
		<path class="st0" d="M53.8,42.8c-1-1.1-2.8-1.1-3.8,0L38.1,54.4c-1.1,1-1.1,2.8,0,3.8l0,0c1,1.1,2.8,1.1,3.8,0l11.9-11.7
			C54.9,45.6,54.9,43.9,53.8,42.8z"/>
		<path class="st0" d="M44.6,61.8c1,1.1,2.8,1.1,3.8,0l10.4-10.1c1.1-1,1.1-2.8,0-3.8c-1-1.1-2.8-1.1-3.8,0L44.6,58
			C43.6,59,43.6,60.7,44.6,61.8z"/>
		<path class="st0" d="M71.7,42l-10-7L44.1,22.8c-0.8-0.5-1.9-0.5-2.5,0.2L27.8,36.4c-1,1-1.2,2.7-0.3,3.8c1,1.2,2.8,1.2,3.9,0.2
			l0,0l10.5-10.2l0.3-0.2c0.7-0.7,1.8-0.8,2.5-0.2l9.5,6.6L69.5,47c0.7,0.5,1,1.4,0.8,2.3c-2.3,7.1-7.1,13.8-14.6,18.6
			c-7.2,4.6-16.1,6.1-24.4,4C17.5,68.6,8.7,58.8,5.8,47.6l0,0c-0.3-1.3-1.6-2.3-3-2.1l-0.2,0c-1.3,0.2-2.3,1.5-2.2,2.9
			c0,0.2,0.1,0.3,0.1,0.4c1.4,5.3,3.8,10.3,7.4,14.7c5.1,6.3,12.3,11.2,21.4,13.6c10.1,2.7,20.9,0.9,29.6-4.9
			c8.4-5.6,13.8-13.1,16.4-21.1c0.5-1.4,0.9-2.9,1.2-4.3c0.2-0.8-0.2-1.6-0.8-2L71.7,42z"/>
		<path class="st0" d="M68.8,14.7c-3.2-4-7.2-7.5-12.1-10.1C40.9-3.9,21-0.4,9.1,13.1C5.4,17.3,2.8,22,1.2,26.9
			c-0.5,1.4-0.9,2.9-1.2,4.3c-0.2,0.8,0.2,1.6,0.8,2L4.8,36l10.5,7.3l17.1,11.9c0.8,0.5,1.9,0.5,2.5-0.2l3.5-3.4l10.4-10.2
			c1-1,1-2.7,0.1-3.7l-0.1-0.1c-1-1-2.7-1-3.7,0L34.4,48c-0.7,0.7-1.8,0.8-2.5,0.2l-9-6.3L7,31c-0.7-0.5-1-1.4-0.8-2.3
			c1.4-4.4,3.8-8.7,7.2-12.4C23.8,5,40.9,2.1,54.3,9.5c8.6,4.7,14.3,12.5,16.5,21.2l0,0c0.3,1.4,1.6,2.4,3.1,2.2
			c1.5-0.2,2.4-1.6,2.2-3c0,0,0,0,0,0C74.8,24.4,72.3,19.2,68.8,14.7z"/>
	</g>
	<g>
		<g>
			<path class="st0" d="M114.7,23.7V19c0-5.4-3.8-9.2-9.2-9.2s-9.2,3.8-9.2,9.2v20.3c0,5.4,3.8,9.2,9.2,9.2s9.2-3.8,9.2-9.2v-5.7
				h-6.4v5.7c0,1.8-1,3-2.7,3c-1.7,0-2.7-1.1-2.7-3V19c0-1.8,1-3,2.7-3c1.7,0,2.7,1.1,2.7,3v4.8H114.7z"/>
			<polygon class="st0" points="125.4,41.7 125.4,10.3 118.8,10.3 118.8,47.9 135.2,47.9 135.2,41.7 			"/>
			<path class="st0" d="M147.5,9.8c-5.6,0-9.4,3.8-9.4,9.3v20c0,5.6,3.8,9.3,9.4,9.3s9.4-3.8,9.4-9.3v-20
				C156.9,13.5,153.1,9.8,147.5,9.8z M144.6,19.1c0-2,1-3.1,2.8-3.1c1.8,0,2.9,1.1,2.9,3.1v20c0,2-1,3.1-2.9,3.1
				c-1.8,0-2.8-1.1-2.8-3.1V19.1z"/>
			<path class="st0" d="M173,10.3v29.1c0,1.8-1,2.8-2.6,2.8s-2.6-1.1-2.6-2.8V10.3h-6.5v29.1c0,5.3,3.8,9.1,9.1,9.1
				c5.4,0,9-3.7,9-9.1V10.3H173z"/>
			<path class="st0" d="M193.5,10.3h-9.2v37.6h9.2c5.6,0,9.2-3.6,9.2-9.2V19.5C202.7,13.9,199,10.3,193.5,10.3z M196.1,19.4v19.4
				c0,1.9-1,2.9-2.9,2.9h-2.4V16.5h2.4C195.1,16.5,196.1,17.5,196.1,19.4z"/>
			<polygon class="st0" points="224.6,10.3 220.4,31.6 216,10.3 207.2,10.3 207.2,47.9 213.6,47.9 213.6,27.2 217.9,47.9 
				222.6,47.9 226.9,27.2 226.9,47.9 233.4,47.9 233.4,10.3 			"/>
			<path class="st0" d="M251.1,10.3h-8.3l-6.2,37.6h6.6l1.2-8.1h5.1l1.2,8.1h6.7L251.1,10.3z M248.6,33.5h-3.3l1.7-11.4L248.6,33.5z
				"/>
			<polygon class="st0" points="256.6,10.3 256.6,16.5 262.7,16.5 262.7,47.9 269.2,47.9 269.2,16.5 275.3,16.5 275.3,10.3 			"/>
			<polygon class="st0" points="295.3,16.5 295.3,10.3 278.6,10.3 278.6,47.9 295.3,47.9 295.3,41.7 285.1,41.7 285.1,32 293.2,32 
				293.2,25.7 285.1,25.7 285.1,16.5 			"/>
		</g>
		<g>
			<path class="st0" d="M116.4,69.4V57.9h2.2l2.6,8.1c0.2,0.8,0.4,1.3,0.5,1.7c0.1-0.4,0.3-1,0.6-1.8l2.7-8h2v11.5h-1.4v-9.6
				l-3.2,9.6H121l-3.2-9.8v9.8H116.4z"/>
			<path class="st0" d="M134,68.3c-0.5,0.4-1,0.8-1.5,0.9s-1,0.3-1.5,0.3c-0.9,0-1.6-0.2-2-0.7c-0.5-0.4-0.7-1-0.7-1.7
				c0-0.4,0.1-0.8,0.3-1.1c0.2-0.3,0.4-0.6,0.7-0.8s0.6-0.4,1-0.5c0.3-0.1,0.7-0.1,1.2-0.2c1.1-0.1,1.9-0.3,2.4-0.5
				c0-0.2,0-0.3,0-0.4c0-0.6-0.1-1-0.4-1.2c-0.3-0.3-0.9-0.5-1.6-0.5c-0.6,0-1.1,0.1-1.4,0.3s-0.5,0.6-0.7,1.2l-1.3-0.2
				c0.1-0.6,0.3-1.1,0.6-1.4s0.7-0.6,1.2-0.8s1.1-0.3,1.8-0.3c0.7,0,1.2,0.1,1.7,0.2c0.4,0.2,0.7,0.4,0.9,0.6c0.2,0.3,0.3,0.6,0.4,1
				c0,0.2,0.1,0.7,0.1,1.3v1.9c0,1.3,0,2.1,0.1,2.5s0.2,0.7,0.3,1h-1.4C134.1,69.1,134,68.7,134,68.3z M133.9,65.2
				c-0.5,0.2-1.2,0.4-2.2,0.5c-0.6,0.1-1,0.2-1.2,0.3s-0.4,0.3-0.5,0.5c-0.1,0.2-0.2,0.4-0.2,0.7c0,0.4,0.1,0.7,0.4,0.9
				s0.7,0.4,1.2,0.4c0.5,0,1-0.1,1.4-0.4s0.7-0.6,0.9-1c0.1-0.3,0.2-0.8,0.2-1.4V65.2z"/>
			<path class="st0" d="M136.9,69.4v-8.3h1.2v1.2c0.6-0.9,1.4-1.4,2.6-1.4c0.5,0,0.9,0.1,1.3,0.3s0.7,0.4,0.9,0.7
				c0.2,0.3,0.3,0.6,0.4,1c0.1,0.3,0.1,0.7,0.1,1.4v5.1h-1.4v-5c0-0.6-0.1-1-0.2-1.3c-0.1-0.3-0.3-0.5-0.6-0.7
				c-0.3-0.2-0.6-0.3-1-0.3c-0.6,0-1.1,0.2-1.5,0.6s-0.6,1.1-0.6,2.2v4.5H136.9z"/>
			<path class="st0" d="M150.3,68.3c-0.5,0.4-1,0.8-1.5,0.9c-0.5,0.2-1,0.3-1.5,0.3c-0.9,0-1.6-0.2-2-0.7c-0.5-0.4-0.7-1-0.7-1.7
				c0-0.4,0.1-0.8,0.3-1.1c0.2-0.3,0.4-0.6,0.7-0.8s0.6-0.4,1-0.5c0.3-0.1,0.7-0.1,1.2-0.2c1.1-0.1,1.9-0.3,2.4-0.5
				c0-0.2,0-0.3,0-0.4c0-0.6-0.1-1-0.4-1.2c-0.3-0.3-0.9-0.5-1.6-0.5c-0.6,0-1.1,0.1-1.4,0.3s-0.5,0.6-0.7,1.2l-1.3-0.2
				c0.1-0.6,0.3-1.1,0.6-1.4s0.7-0.6,1.2-0.8c0.5-0.2,1.1-0.3,1.8-0.3c0.7,0,1.2,0.1,1.7,0.2c0.4,0.2,0.7,0.4,0.9,0.6s0.3,0.6,0.4,1
				c0,0.2,0.1,0.7,0.1,1.3v1.9c0,1.3,0,2.1,0.1,2.5c0.1,0.3,0.2,0.7,0.3,1h-1.4C150.4,69.1,150.4,68.7,150.3,68.3z M150.2,65.2
				c-0.5,0.2-1.2,0.4-2.2,0.5c-0.6,0.1-1,0.2-1.2,0.3s-0.4,0.3-0.5,0.5c-0.1,0.2-0.2,0.4-0.2,0.7c0,0.4,0.1,0.7,0.4,0.9
				s0.7,0.4,1.2,0.4c0.5,0,1-0.1,1.4-0.4s0.7-0.6,0.9-1c0.1-0.3,0.2-0.8,0.2-1.4V65.2z"/>
			<path class="st0" d="M153,70.1l1.3,0.2c0.1,0.4,0.2,0.7,0.5,0.9c0.3,0.3,0.8,0.4,1.4,0.4c0.6,0,1.1-0.1,1.5-0.4
				c0.3-0.3,0.6-0.6,0.7-1.1c0.1-0.3,0.1-0.9,0.1-1.8c-0.6,0.7-1.3,1.1-2.2,1.1c-1.1,0-2-0.4-2.6-1.2c-0.6-0.8-0.9-1.8-0.9-3
				c0-0.8,0.1-1.5,0.4-2.2c0.3-0.7,0.7-1.2,1.2-1.6c0.5-0.4,1.1-0.5,1.9-0.5c0.9,0,1.7,0.4,2.3,1.2v-1h1.3v7.2
				c0,1.3-0.1,2.2-0.4,2.7c-0.3,0.5-0.7,1-1.2,1.3c-0.6,0.3-1.2,0.5-2,0.5c-1,0-1.7-0.2-2.3-0.7C153.2,71.6,153,71,153,70.1z
				 M154.1,65.1c0,1.1,0.2,1.9,0.6,2.4c0.4,0.5,0.9,0.8,1.6,0.8c0.6,0,1.2-0.2,1.6-0.7s0.6-1.3,0.6-2.3c0-1-0.2-1.8-0.7-2.3
				c-0.4-0.5-1-0.8-1.6-0.8c-0.6,0-1.1,0.3-1.5,0.8C154.3,63.3,154.1,64.1,154.1,65.1z"/>
			<path class="st0" d="M166.9,66.7l1.4,0.2c-0.2,0.8-0.6,1.5-1.2,2c-0.6,0.5-1.4,0.7-2.3,0.7c-1.2,0-2.1-0.4-2.8-1.1s-1-1.8-1-3.1
				c0-1.4,0.3-2.5,1-3.2s1.6-1.2,2.7-1.2c1.1,0,2,0.4,2.6,1.1c0.7,0.8,1,1.8,1,3.2c0,0.1,0,0.2,0,0.4h-6c0.1,0.9,0.3,1.6,0.8,2.1
				c0.4,0.5,1,0.7,1.7,0.7c0.5,0,0.9-0.1,1.3-0.4S166.7,67.3,166.9,66.7z M162.4,64.4h4.5c-0.1-0.7-0.2-1.2-0.5-1.6
				c-0.4-0.5-1-0.8-1.7-0.8c-0.6,0-1.2,0.2-1.6,0.6C162.7,63.1,162.5,63.7,162.4,64.4z"/>
			<path class="st0" d="M174.8,69.4v-1c-0.5,0.8-1.3,1.2-2.2,1.2c-0.6,0-1.2-0.2-1.8-0.5s-1-0.9-1.3-1.5c-0.3-0.7-0.4-1.4-0.4-2.3
				c0-0.8,0.1-1.6,0.4-2.3c0.3-0.7,0.7-1.2,1.2-1.6c0.5-0.4,1.1-0.5,1.8-0.5c0.5,0,0.9,0.1,1.3,0.3s0.7,0.5,0.9,0.8v-4.1h1.4v11.5
				H174.8z M170.5,65.2c0,1.1,0.2,1.9,0.7,2.4s0.9,0.8,1.5,0.8c0.6,0,1.1-0.3,1.5-0.8c0.4-0.5,0.6-1.3,0.6-2.3c0-1.1-0.2-2-0.6-2.5
				c-0.4-0.5-0.9-0.8-1.6-0.8c-0.6,0-1.1,0.3-1.5,0.8C170.7,63.3,170.5,64.1,170.5,65.2z"/>
			<path class="st0" d="M181.2,65.7l1.4-0.1c0.1,0.6,0.2,1,0.5,1.4c0.2,0.4,0.6,0.7,1.1,0.9s1.1,0.3,1.7,0.3c0.6,0,1.1-0.1,1.5-0.3
				s0.7-0.4,1-0.7c0.2-0.3,0.3-0.6,0.3-1c0-0.4-0.1-0.7-0.3-0.9s-0.5-0.5-1-0.7c-0.3-0.1-1-0.3-2-0.6s-1.7-0.5-2.1-0.7
				c-0.5-0.3-0.9-0.6-1.2-1.1c-0.3-0.4-0.4-0.9-0.4-1.4c0-0.6,0.2-1.1,0.5-1.6s0.8-0.9,1.4-1.1s1.3-0.4,2-0.4c0.8,0,1.5,0.1,2.2,0.4
				s1.1,0.7,1.5,1.2c0.3,0.5,0.5,1.1,0.5,1.8l-1.4,0.1c-0.1-0.7-0.3-1.3-0.8-1.6c-0.4-0.4-1.1-0.6-1.9-0.6c-0.9,0-1.5,0.2-1.9,0.5
				c-0.4,0.3-0.6,0.7-0.6,1.2c0,0.4,0.1,0.8,0.4,1c0.3,0.3,1,0.5,2.2,0.8c1.2,0.3,2,0.5,2.5,0.7c0.6,0.3,1.1,0.7,1.4,1.2
				c0.3,0.5,0.5,1,0.5,1.6c0,0.6-0.2,1.2-0.5,1.7c-0.3,0.5-0.8,1-1.5,1.3s-1.3,0.4-2.1,0.4c-1,0-1.8-0.2-2.5-0.5s-1.2-0.8-1.6-1.4
				C181.5,67.1,181.3,66.5,181.2,65.7z"/>
			<path class="st0" d="M197,66.7l1.4,0.2c-0.2,0.8-0.6,1.5-1.2,2c-0.6,0.5-1.4,0.7-2.3,0.7c-1.2,0-2.1-0.4-2.8-1.1s-1-1.8-1-3.1
				c0-1.4,0.3-2.5,1-3.2s1.6-1.2,2.7-1.2c1.1,0,2,0.4,2.6,1.1c0.7,0.8,1,1.8,1,3.2c0,0.1,0,0.2,0,0.4h-6c0.1,0.9,0.3,1.6,0.8,2.1
				c0.4,0.5,1,0.7,1.7,0.7c0.5,0,0.9-0.1,1.3-0.4S196.8,67.3,197,66.7z M192.5,64.4h4.5c-0.1-0.7-0.2-1.2-0.5-1.6
				c-0.4-0.5-1-0.8-1.7-0.8c-0.6,0-1.2,0.2-1.6,0.6C192.8,63.1,192.5,63.7,192.5,64.4z"/>
			<path class="st0" d="M199.6,69.4v-8.3h1.2v1.3c0.3-0.6,0.6-1,0.9-1.2c0.3-0.2,0.6-0.3,0.9-0.3c0.5,0,0.9,0.2,1.4,0.5l-0.5,1.3
				c-0.3-0.2-0.7-0.3-1-0.3c-0.3,0-0.6,0.1-0.8,0.3c-0.2,0.2-0.4,0.4-0.5,0.8c-0.2,0.5-0.2,1-0.2,1.6v4.3H199.6z"/>
			<path class="st0" d="M206.6,69.4l-3.1-8.3h1.4l1.7,5c0.2,0.5,0.4,1.1,0.5,1.7c0.1-0.4,0.3-1,0.5-1.6l1.8-5.1h1.4l-3,8.3H206.6z"
				/>
			<path class="st0" d="M211.6,59.5v-1.6h1.4v1.6H211.6z M211.6,69.4v-8.3h1.4v8.3H211.6z"/>
			<path class="st0" d="M219.9,66.3l1.3,0.2c-0.1,1-0.5,1.7-1.1,2.2c-0.6,0.5-1.3,0.8-2.2,0.8c-1.1,0-2-0.4-2.7-1.1
				c-0.7-0.7-1-1.8-1-3.2c0-0.9,0.1-1.7,0.4-2.4s0.7-1.2,1.3-1.5c0.6-0.3,1.2-0.5,1.9-0.5c0.9,0,1.6,0.2,2.1,0.7s0.9,1.1,1.1,1.9
				l-1.3,0.2c-0.1-0.6-0.3-1-0.7-1.3c-0.3-0.3-0.7-0.4-1.2-0.4c-0.7,0-1.2,0.3-1.7,0.8s-0.6,1.3-0.6,2.4c0,1.1,0.2,1.9,0.6,2.4
				c0.4,0.5,1,0.8,1.6,0.8c0.5,0,1-0.2,1.3-0.5C219.5,67.6,219.8,67,219.9,66.3z"/>
			<path class="st0" d="M227.4,66.7l1.4,0.2c-0.2,0.8-0.6,1.5-1.2,2c-0.6,0.5-1.4,0.7-2.3,0.7c-1.2,0-2.1-0.4-2.8-1.1s-1-1.8-1-3.1
				c0-1.4,0.3-2.5,1-3.2s1.6-1.2,2.7-1.2c1.1,0,2,0.4,2.6,1.1c0.7,0.8,1,1.8,1,3.2c0,0.1,0,0.2,0,0.4h-6c0.1,0.9,0.3,1.6,0.8,2.1
				c0.4,0.5,1,0.7,1.7,0.7c0.5,0,0.9-0.1,1.3-0.4S227.2,67.3,227.4,66.7z M222.9,64.4h4.5c-0.1-0.7-0.2-1.2-0.5-1.6
				c-0.4-0.5-1-0.8-1.7-0.8c-0.6,0-1.2,0.2-1.6,0.6C223.2,63.1,223,63.7,222.9,64.4z"/>
			<path class="st0" d="M234.1,69.4V57.9h8v1.4h-6.6v3.5h6.1v1.3h-6.1V68h6.8v1.4H234.1z"/>
			<path class="st0" d="M242.9,69.4l2.9-4.3l-2.7-4h1.7L246,63c0.2,0.4,0.4,0.7,0.6,0.9c0.2-0.3,0.4-0.6,0.6-0.9l1.4-2h1.6l-2.8,3.9
				l3,4.4h-1.7l-1.7-2.6l-0.4-0.7l-2.1,3.3H242.9z"/>
			<path class="st0" d="M251.1,72.5V61.1h1.2v1.1c0.3-0.4,0.6-0.7,1-0.9c0.4-0.2,0.8-0.3,1.3-0.3c0.7,0,1.3,0.2,1.8,0.5
				c0.5,0.4,0.9,0.9,1.2,1.5s0.4,1.4,0.4,2.2c0,0.8-0.1,1.6-0.4,2.3c-0.3,0.7-0.7,1.2-1.3,1.6c-0.6,0.4-1.2,0.5-1.8,0.5
				c-0.5,0-0.9-0.1-1.2-0.3s-0.7-0.4-0.9-0.8v4H251.1z M252.3,65.3c0,1.1,0.2,1.9,0.6,2.4c0.4,0.5,0.9,0.8,1.5,0.8
				c0.6,0,1.1-0.3,1.6-0.8c0.4-0.5,0.6-1.3,0.6-2.5c0-1.1-0.2-1.8-0.6-2.4c-0.4-0.5-0.9-0.8-1.5-0.8c-0.6,0-1.1,0.3-1.5,0.8
				S252.3,64.2,252.3,65.3z"/>
			<path class="st0" d="M264.8,66.7l1.4,0.2c-0.2,0.8-0.6,1.5-1.2,2c-0.6,0.5-1.4,0.7-2.3,0.7c-1.2,0-2.1-0.4-2.8-1.1s-1-1.8-1-3.1
				c0-1.4,0.3-2.5,1-3.2s1.6-1.2,2.7-1.2c1.1,0,2,0.4,2.6,1.1c0.7,0.8,1,1.8,1,3.2c0,0.1,0,0.2,0,0.4h-6c0.1,0.9,0.3,1.6,0.8,2.1
				c0.4,0.5,1,0.7,1.7,0.7c0.5,0,0.9-0.1,1.3-0.4S264.6,67.3,264.8,66.7z M260.3,64.4h4.5c-0.1-0.7-0.2-1.2-0.5-1.6
				c-0.4-0.5-1-0.8-1.7-0.8c-0.6,0-1.2,0.2-1.6,0.6C260.6,63.1,260.3,63.7,260.3,64.4z"/>
			<path class="st0" d="M267.4,69.4v-8.3h1.2v1.3c0.3-0.6,0.6-1,0.9-1.2c0.3-0.2,0.6-0.3,0.9-0.3c0.5,0,0.9,0.2,1.4,0.5l-0.5,1.3
				c-0.3-0.2-0.7-0.3-1-0.3c-0.3,0-0.6,0.1-0.8,0.3c-0.2,0.2-0.4,0.4-0.5,0.8c-0.2,0.5-0.2,1-0.2,1.6v4.3H267.4z"/>
			<path class="st0" d="M275.1,68.1l0.2,1.2c-0.4,0.1-0.7,0.1-1,0.1c-0.5,0-0.9-0.1-1.2-0.2c-0.3-0.2-0.5-0.4-0.6-0.6
				c-0.1-0.3-0.2-0.8-0.2-1.7v-4.8h-1v-1.1h1V59l1.4-0.8v2.9h1.4v1.1h-1.4V67c0,0.4,0,0.7,0.1,0.8c0,0.1,0.1,0.2,0.2,0.3
				s0.3,0.1,0.5,0.1C274.7,68.2,274.9,68.1,275.1,68.1z"/>
		</g>
	</g>
</g>
</svg>
